<svg width="27" height="27" viewBox="0 0 27 27" fill="none" xmlns="http://www.w3.org/2000/svg">
<path d="M25.5517 11.6559L14.6426 2.02659C14.4415 1.84789 14.1788 1.74878 13.9063 1.74878C13.6337 1.74878 13.371 1.84789 13.1699 2.02659L2.2608 11.6559C2.15102 11.7566 2.0631 11.8776 2.00221 12.0118C1.94132 12.146 1.90869 12.2907 1.90625 12.4373V24.6892C1.90625 24.9702 2.02118 25.2397 2.22577 25.4384C2.43036 25.6371 2.70783 25.7488 2.99716 25.7488H24.8153C25.1047 25.7488 25.3821 25.6371 25.5867 25.4384C25.7913 25.2397 25.9063 24.9702 25.9063 24.6892V12.4373C25.9038 12.2907 25.8712 12.146 25.8103 12.0118C25.7494 11.8776 25.6615 11.7566 25.5517 11.6559V11.6559Z" stroke="#B8B8B8" stroke-width="2" stroke-linecap="round" stroke-linejoin="round"/>
</svg>
