<svg width="16" height="16" viewBox="0 0 16 16" fill="none" xmlns="http://www.w3.org/2000/svg">
<path d="M2.1582 9.27832C0.866211 7.98633 0.209961 6.57129 0.209961 5.0332C0.209961 2.57227 2.24023 0.541992 4.70117 0.541992C5.95215 0.541992 7.1416 1.05469 7.96191 1.95703C8.80273 1.05469 9.99219 0.541992 11.2432 0.541992C13.7041 0.541992 15.7344 2.57227 15.7344 5.0332C15.7344 6.57129 15.0781 7.98633 13.8066 9.27832L7.96191 15.1025L2.1582 9.27832ZM13.3145 8.82715C14.5039 7.6377 15.0986 6.38672 15.1191 5.0332C15.0986 2.90039 13.376 1.17773 11.2432 1.15723C10.0537 1.17773 8.9668 1.69043 7.96191 2.90039C6.99805 1.69043 5.89062 1.17773 4.70117 1.15723C2.58887 1.17773 0.845703 2.90039 0.825195 5.0332C0.845703 6.38672 1.46094 7.6377 2.62988 8.82715L7.96191 14.2002L13.3145 8.82715Z" fill="#4CAF50"/>
</svg>
