<svg width="16" height="16" viewBox="0 0 16 16" fill="none" xmlns="http://www.w3.org/2000/svg">
<path d="M2.1377 9.38086C0.845703 8.06836 0.168945 6.6123 0.168945 5.05371C0.168945 2.51074 2.24023 0.439453 4.7832 0.439453C6.01367 0.439453 7.18262 0.911133 8.02344 1.77246C8.88477 0.911133 10.0537 0.439453 11.2842 0.439453C13.8271 0.439453 15.8984 2.51074 15.8984 5.05371C15.8984 6.6123 15.2422 8.06836 13.9297 9.38086L8.02344 15.2666L2.1377 9.38086ZM13.2324 8.7041C14.3809 7.57617 14.9551 6.3457 14.9756 5.05371C14.9551 3.02344 13.3145 1.38281 11.2842 1.3623C10.1562 1.38281 9.11035 1.875 8.02344 3.1875C6.95703 1.875 5.93164 1.38281 4.7832 1.3623C2.77344 1.38281 1.1123 3.02344 1.1123 5.05371C1.1123 6.3457 1.68652 7.57617 2.83496 8.7041L8.02344 13.9131L13.2324 8.7041Z" fill="#B8B8B8"/>
</svg>
