<svg width="27" height="27" viewBox="0 0 27 27" fill="none" xmlns="http://www.w3.org/2000/svg">
<path d="M25.3955 11.5392L14.4864 1.90989C14.2853 1.73119 14.0226 1.63208 13.75 1.63208C13.4774 1.63208 13.2147 1.73119 13.0136 1.90989L2.10455 11.5392C1.99477 11.6399 1.90685 11.7609 1.84596 11.8951C1.78507 12.0293 1.75244 12.174 1.75 12.3206V24.5725C1.75 24.8535 1.86493 25.123 2.06952 25.3217C2.27411 25.5204 2.55158 25.6321 2.84091 25.6321H24.6591C24.9484 25.6321 25.2259 25.5204 25.4305 25.3217C25.6351 25.123 25.75 24.8535 25.75 24.5725V12.3206C25.7476 12.174 25.7149 12.0293 25.654 11.8951C25.5932 11.7609 25.5052 11.6399 25.3955 11.5392V11.5392Z" stroke="#4CAF50" stroke-width="2" stroke-linecap="round" stroke-linejoin="round"/>
</svg>
